<?xml version="1.0" encoding="UTF-8"?>
<svg id="Layer_1" xmlns="http://www.w3.org/2000/svg" version="1.1" viewBox="0 0 490 115">
  <!-- Generator: Adobe Illustrator 29.7.1, SVG Export Plug-In . SVG Version: 2.1.1 Build 8)  -->
  <defs>
    <style>
      .st0 {
        fill: #383838;
      }
    </style>
  </defs>
  <path class="st0" d="M336.86,105.75h-13.17v-7.25c-5.4,5.65-13.19,8.92-22.61,8.92-16.33,0-30.9-13.19-30.9-32.91s14.57-32.91,30.9-32.91c9.42,0,17.21,3.27,22.61,8.92v-7.16h13.17v62.4ZM323.22,74.5c0-12.76-9.94-20.86-20-20.86-11.17,0-19.88,8.1-19.88,20.86s8.71,20.86,19.88,20.86c10.06,0,20-7.98,20-20.86Z"/>
  <path class="st0" d="M489.27,105.76h-13.17v-7.26c-5.4,5.65-13.19,8.92-22.61,8.92-16.33,0-30.91-13.19-30.91-32.91s14.57-32.91,30.91-32.91c9.42,0,17.21,3.27,22.61,8.92V13.58h13.17v92.18ZM475.62,74.5c0-12.76-9.94-20.86-20-20.86-11.17,0-19.88,8.1-19.88,20.86s8.71,20.86,19.88,20.86c10.06,0,20-7.98,20-20.86Z"/>
  <path class="st0" d="M412.35,67.8v37.95h-13.17v-35.29c0-10.27-5.96-17.12-14.97-17.12-11.29,0-18.77,7.61-18.77,23.46v28.94h-13.17v-62.4h13.17v7.33c5.07-6.09,12.43-9.51,21.82-9.51,15.09,0,25.09,10.91,25.09,26.63Z"/>
  <path class="st0" d="M155.57,13.58h-13.17v92.17h13.17V13.58Z"/>
  <path class="st0" d="M203.96,70.13l-14.96-3.3c-5.58-1.27-7.61-3.55-7.61-7.1,0-4.44,3.43-8.24,11.16-8.24,8.12,0,13.32,4.19,14.33,10.27h13.16c-1.14-13.41-13.13-20.8-27.11-20.8-15.09,0-24.71,8.26-24.71,19.92,0,8.88,6.07,14.7,16.97,17.11l13.7,2.79c5.83,1.27,8.5,3.68,8.5,7.48,0,4.95-4.82,8.37-12.43,8.37-8.24,0-15.05-3.17-15.94-10.65h-13.17c.05.74-.66,21.43,27.96,21.43,15.73,0,26.72-7.12,26.72-20.31,0-8.88-6.42-14.82-16.57-16.97Z"/>
  <path class="st0" d="M261.84,92.58h0c-4.92.04-8.76-.08-12.58-3.9-3.93-3.94-3.89-7.76-3.89-12.76V13.58h-13.17v62.47c0,8.13.96,15.14,7.8,21.98,6.51,6.52,13.5,7.74,21.26,7.71h3.88v-13.17h-3.3Z"/>
  <path class="st0" d="M55.98,2.5c30.38,0,55,24.62,55,55s-24.62,55-55,55S.98,87.88.98,57.5C.98,27.12,25.6,2.5,55.98,2.5ZM55.48,15.11c-11.23,0-22,4.46-29.94,12.4-5.88,5.88-9.86,13.32-11.52,21.34-.97,4.68,3,8.6,7.78,8.6h67.37c4.78,0,8.75-3.92,7.78-8.6-1.66-8.02-5.64-15.46-11.52-21.34-7.94-7.94-18.71-12.4-29.94-12.4Z"/>
</svg>